<svg xmlns="http://www.w3.org/2000/svg" width="900" height="288">
<rect x="20" y="20" width="860" height="14" rx="7" ry="7" fill="#21262d"/>
<rect x="20" y="20" width="417.8749880390892" height="14" fill="#b07219"/>
<rect x="437.8749880390892" y="20" width="404.01271541865003" height="14" fill="#A97BFF"/>
<rect x="841.8877034577392" y="20" width="29.51751929349106" height="14" fill="#8b949e"/>
<rect x="871.4052227512303" y="20" width="3.9590760903485607" height="14" fill="#3572A5"/>
<rect x="875.364298841579" y="20" width="2.2595791392842894" height="14" fill="#701516"/>
<rect x="877.6238779808632" y="20" width="2.376122019136852" height="14" fill="#8b949e"/>
<circle cx="30" cy="61" r="6" fill="#b07219"/>
<text x="45" y="65" fill="#c9d1d9" font-size="14" font-family="Segoe UI">Java 48.59%</text>
<circle cx="30" cy="89" r="6" fill="#A97BFF"/>
<text x="45" y="93" fill="#c9d1d9" font-size="14" font-family="Segoe UI">Kotlin 46.98%</text>
<circle cx="30" cy="117" r="6" fill="#8b949e"/>
<text x="45" y="121" fill="#c9d1d9" font-size="14" font-family="Segoe UI">GLSL 3.43%</text>
<circle cx="30" cy="145" r="6" fill="#3572A5"/>
<text x="45" y="149" fill="#c9d1d9" font-size="14" font-family="Segoe UI">Python 0.46%</text>
<circle cx="30" cy="173" r="6" fill="#701516"/>
<text x="45" y="177" fill="#c9d1d9" font-size="14" font-family="Segoe UI">Ruby 0.26%</text>
<circle cx="30" cy="201" r="6" fill="#8b949e"/>
<text x="45" y="205" fill="#c9d1d9" font-size="14" font-family="Segoe UI">Other 0.28%</text>
</svg>